/* XPM */
static char *freeimage[] = {
/* width height num_colors chars_per_pixel */
"32 32 157 2",
/* colors */
"   c #e8e8e8",
" . c #000000",
" X c #b6b6b6",
" o c #323232",
" O c #484848",
" + c #c8c8c8",
" @ c #3b3b3b",
" # c #4e4e4e",
" $ c #e1e1e1",
" % c #555555",
" & c #252525",
" * c #c1c1c1",
" = c #e6e6e6",
" - c #d5d5d5",
" ; c #cbcbcb",
" : c #d2d2d2",
" > c #d8d8d8",
" , c #979797",
" < c #7f7f7f",
" 1 c #939393",
" 2 c #d1d1d1",
" 3 c #dfdfdf",
" 4 c #e7e8e8",
" 5 c #a6a6a6",
" 6 c #525252",
" 7 c #282828",
" 8 c #202020",
" 9 c #2e2e2e",
" 0 c #565656",
" q c #9b9b9b",
" w c #d0d0d0",
" e c #bebebe",
" r c #717171",
" t c #696969",
" y c #b7b7b7",
" u c #dcdcdc",
" i c #5f5f5f",
" p c #373737",
" a c #7e7e7e",
" s c #9d9d9d",
" d c #6f6f6f",
" f c #0d0d0d",
" g c #050505",
" h c #242424",
" j c #3e3e3e",
" k c #626262",
" l c #797979",
" z c #d9d9d9",
" x c #474747",
" c c #cdcdcd",
" v c #e7e7e7",
" b c #e5e5e5",
" n c #e2e2e2",
" m c #040404",
" M c #131313",
" N c #232323",
" B c #a2a2a2",
" V c #e4e4e4",
" C c #dbdbdb",
" Z c #9e9e9e",
" A c #e3e3e3",
" S c #dddddd",
" D c #d6d6d6",
" F c #cacaca",
" G c #353535",
" H c #191919",
" J c #0e0e0e",
" K c #0a0a0a",
" L c #dbdcdc",
" P c #8a8a8a",
" I c #dadada",
" U c #cecece",
" Y c #4b4b4b",
" T c #535353",
" R c #bababa",
" E c #959595",
" W c #8b8b8b",
" Q c #c5c5c5",
" ! c #d3d3d3",
" ~ c #b8b8b8",
" ^ c #bcbcbc",
" / c #d7d7d7",
" ( c #dedede",
" ) c #636363",
" _ c #515151",
" ` c #c9c9c9",
" ' c #d4d4d4",
" ] c #757575",
" [ c #0c0c0c",
" { c #848484",
" } c #a9a9a9",
" | c #c7c7c7",
".  c #cfcfcf",
".. c #6d6d6d",
".X c #333333",
".o c #030303",
".O c #111111",
".+ c #5a5a5a",
".@ c #adadad",
".# c #e0e0e0",
".$ c #e3e4e4",
".% c #c4c4c4",
".& c #595959",
".* c #181818",
".= c #020202",
".- c #1f1f1f",
".; c #222222",
".: c #070707",
".> c #545454",
"., c #818181",
".< c #7a7a7a",
".1 c #c6c6c6",
".2 c #b3b3b3",
".3 c #858585",
".4 c #1c1c1c",
".5 c #1b1b1b",
".6 c #4f4f4f",
".7 c #6e6e6e",
".8 c #cccccc",
".9 c #616161",
".0 c #161616",
".q c #a7a7a7",
".w c #a5a5a5",
".e c #b1b1b1",
".r c #3c3c3c",
".t c #737373",
".y c #1e1e1e",
".u c #c2c2c2",
".i c #747474",
".p c #838383",
".a c #929292",
".s c #464646",
".d c #e8e8e7",
".f c #bfbfbf",
".g c #a8a8a8",
".h c #212121",
".j c #afafaf",
".k c #b0b0b0",
".l c #c0c0c0",
".z c #393939",
".x c #e2e3e3",
".c c #6c6c6c",
".v c #828282",
".b c #d3d2d3",
".n c #666666",
".m c #2a2a2a",
".M c #454545",
".N c #aeaeae",
".B c #3a3a3a",
".V c #575757",
".C c #0f0f0f",
".Z c #2c2c2c",
".A c #9f9f9f",
".S c #1d1d1d",
".D c #494949",
".F c #e8e7e8",
".G c #919191",
/* pixels */
"   . . . . . . . . . . . . . . . . . . . . . . . . . . . . . .  ",
" . .                                                         . .",
" .                               X o O +                       .",
" .                               @ . . # $                     .",
" .                               % . . & * =                   .",
" .                         - ; : > , < 1 2 3 =   4 .           .",
" .                     5 6 7 8 9 0 q w ; e r t y   . .         .",
" .                 u i p a s d f . g h # j k l i   . . .       .",
" .         .     z x @ c v b n e 0 m . . . M N B V . .         .",
" .       . .   C # . Z = A S z D F G H J K h s u L . =         .",
" .     . . .   P H i 2 $ z z I U Y T R E W Q ! ! - u V         .",
" .       . . v ~ ^ = 3 / D ( n ) _ u ! ; + ` F c ' ( b         .",
" .         .     v $ D 2 I ( ] [ { } | 2.  c U : C A v         .",
" .               b ( D ~...X.o . J.O &.+.@ u C.#.$ v           .",
" .               =.%.&.*.= ..-.; M.: . . f 6 ; v               .",
" .             C P p.>., N.<.# D.1.2 5.3 #.4.5 }               .",
" .           - r k.  2.6.7 S / 2.8 ` ; U 2 +.9.0.q             .",
" .         u r.w  .e.r.t z : U c.  w. .  U.  2.y.0.u v         .",
" .        .i.p $.i Y.a z / : w / (.# 3 S C z - 9 ..s A v.d     .",
" .        .* @.9 a.f C u z / I n v   v v = V n.g.h . C V       .",
" .        .j.k + u S ( u z u A v               =.l.z 2 S =     .",
" .           A C z u u I S A v                  .x ' c - A     .",
" .           ~...c...2.# V v             ;.i.i.i.t.7.v.b $     .",
" .        .n ..m d % ..t                 ;.i.i.i O ..M C A     .",
" .      .N . O = = v ^ ^   z.n.B.B.V ^         ^.C.Z > V =     .",
" .      .i ..A   ^.N.N ^  .S ..v.A.C . ;     ^.C.S z           .",
" .      .i ..A  .n.B.C.B.N ..n    .A ..i   z.S.C ^           4 .",
" .      .N ..B      .B.B ^ ..D   4.v ..v z.Z.C ^      .F       .",
" .        .n ..S.i.n.C.B  .D ..D.n ..S z.i ..S.B.B.B.n         .",
" .           ^.v.i.i.A z    .A.i.i.G z   ;.N.N.N.N.N ^         .",
" . .                       4                                 . .",
"   . . . . . . . . . . . . . . . . . . . . . . . . . . . . . .  "
};
